<mxfile host="Electron" modified="2023-10-05T14:45:43.503Z" agent="Mozilla/5.0 (Windows NT 10.0; Win64; x64) AppleWebKit/537.36 (KHTML, like Gecko) draw.io/21.6.5 Chrome/114.0.5735.243 Electron/25.3.1 Safari/537.36" etag="Z1ydve_XuuREWHf97oDA" version="21.6.5" type="device">
  <diagram name="Page-1" id="YmQVPHGS-TSrRF113AtW">
    <mxGraphModel dx="875" dy="524" grid="1" gridSize="10" guides="1" tooltips="1" connect="1" arrows="1" fold="1" page="1" pageScale="1" pageWidth="1100" pageHeight="850" math="0" shadow="0">
      <root>
        <mxCell id="0" />
        <mxCell id="1" parent="0" />
        <mxCell id="u_zNnAl9bDHypQ6zqv79-4" style="edgeStyle=orthogonalEdgeStyle;rounded=0;orthogonalLoop=1;jettySize=auto;html=1;entryX=0.5;entryY=0;entryDx=0;entryDy=0;" edge="1" parent="1" source="u_zNnAl9bDHypQ6zqv79-1" target="u_zNnAl9bDHypQ6zqv79-2">
          <mxGeometry relative="1" as="geometry" />
        </mxCell>
        <mxCell id="u_zNnAl9bDHypQ6zqv79-1" value="start guessing the number" style="rounded=1;whiteSpace=wrap;html=1;" vertex="1" parent="1">
          <mxGeometry x="460" y="80" width="120" height="60" as="geometry" />
        </mxCell>
        <mxCell id="u_zNnAl9bDHypQ6zqv79-5" style="edgeStyle=orthogonalEdgeStyle;rounded=0;orthogonalLoop=1;jettySize=auto;html=1;exitX=0.5;exitY=1;exitDx=0;exitDy=0;entryX=0.5;entryY=0;entryDx=0;entryDy=0;" edge="1" parent="1" source="u_zNnAl9bDHypQ6zqv79-2" target="u_zNnAl9bDHypQ6zqv79-3">
          <mxGeometry relative="1" as="geometry" />
        </mxCell>
        <mxCell id="u_zNnAl9bDHypQ6zqv79-2" value="tebak angka diantara 1 - 100" style="rounded=0;whiteSpace=wrap;html=1;" vertex="1" parent="1">
          <mxGeometry x="460" y="180" width="120" height="60" as="geometry" />
        </mxCell>
        <mxCell id="u_zNnAl9bDHypQ6zqv79-7" style="edgeStyle=orthogonalEdgeStyle;rounded=0;orthogonalLoop=1;jettySize=auto;html=1;exitX=0;exitY=0.5;exitDx=0;exitDy=0;entryX=1;entryY=0.5;entryDx=0;entryDy=0;" edge="1" parent="1" source="u_zNnAl9bDHypQ6zqv79-3" target="u_zNnAl9bDHypQ6zqv79-6">
          <mxGeometry relative="1" as="geometry" />
        </mxCell>
        <mxCell id="u_zNnAl9bDHypQ6zqv79-10" value="easy" style="edgeLabel;html=1;align=center;verticalAlign=middle;resizable=0;points=[];" vertex="1" connectable="0" parent="u_zNnAl9bDHypQ6zqv79-7">
          <mxGeometry x="-0.6533" y="-1" relative="1" as="geometry">
            <mxPoint as="offset" />
          </mxGeometry>
        </mxCell>
        <mxCell id="u_zNnAl9bDHypQ6zqv79-9" style="edgeStyle=orthogonalEdgeStyle;rounded=0;orthogonalLoop=1;jettySize=auto;html=1;exitX=1;exitY=0.5;exitDx=0;exitDy=0;entryX=0;entryY=0.5;entryDx=0;entryDy=0;" edge="1" parent="1" source="u_zNnAl9bDHypQ6zqv79-3" target="u_zNnAl9bDHypQ6zqv79-8">
          <mxGeometry relative="1" as="geometry" />
        </mxCell>
        <mxCell id="u_zNnAl9bDHypQ6zqv79-11" value="hard" style="edgeLabel;html=1;align=center;verticalAlign=middle;resizable=0;points=[];" vertex="1" connectable="0" parent="u_zNnAl9bDHypQ6zqv79-9">
          <mxGeometry x="-0.632" y="1" relative="1" as="geometry">
            <mxPoint as="offset" />
          </mxGeometry>
        </mxCell>
        <mxCell id="u_zNnAl9bDHypQ6zqv79-3" value="game level" style="rhombus;whiteSpace=wrap;html=1;" vertex="1" parent="1">
          <mxGeometry x="480" y="280" width="80" height="80" as="geometry" />
        </mxCell>
        <mxCell id="u_zNnAl9bDHypQ6zqv79-13" style="edgeStyle=orthogonalEdgeStyle;rounded=0;orthogonalLoop=1;jettySize=auto;html=1;exitX=0.5;exitY=1;exitDx=0;exitDy=0;entryX=0.5;entryY=0;entryDx=0;entryDy=0;" edge="1" parent="1" source="u_zNnAl9bDHypQ6zqv79-6" target="u_zNnAl9bDHypQ6zqv79-12">
          <mxGeometry relative="1" as="geometry">
            <Array as="points">
              <mxPoint x="270" y="390" />
              <mxPoint x="520" y="390" />
            </Array>
          </mxGeometry>
        </mxCell>
        <mxCell id="u_zNnAl9bDHypQ6zqv79-6" value="kesempatan tebak = 10" style="rounded=0;whiteSpace=wrap;html=1;" vertex="1" parent="1">
          <mxGeometry x="210" y="285" width="120" height="70" as="geometry" />
        </mxCell>
        <mxCell id="u_zNnAl9bDHypQ6zqv79-14" style="edgeStyle=orthogonalEdgeStyle;rounded=0;orthogonalLoop=1;jettySize=auto;html=1;exitX=0.5;exitY=1;exitDx=0;exitDy=0;entryX=0.5;entryY=0;entryDx=0;entryDy=0;" edge="1" parent="1" source="u_zNnAl9bDHypQ6zqv79-8" target="u_zNnAl9bDHypQ6zqv79-12">
          <mxGeometry relative="1" as="geometry">
            <Array as="points">
              <mxPoint x="770" y="390" />
              <mxPoint x="520" y="390" />
            </Array>
          </mxGeometry>
        </mxCell>
        <mxCell id="u_zNnAl9bDHypQ6zqv79-8" value="kesempatan tebak = 5" style="rounded=0;whiteSpace=wrap;html=1;" vertex="1" parent="1">
          <mxGeometry x="710" y="290" width="120" height="60" as="geometry" />
        </mxCell>
        <mxCell id="u_zNnAl9bDHypQ6zqv79-16" style="edgeStyle=orthogonalEdgeStyle;rounded=0;orthogonalLoop=1;jettySize=auto;html=1;exitX=0.5;exitY=1;exitDx=0;exitDy=0;entryX=0.5;entryY=0;entryDx=0;entryDy=0;" edge="1" parent="1" source="u_zNnAl9bDHypQ6zqv79-12" target="u_zNnAl9bDHypQ6zqv79-15">
          <mxGeometry relative="1" as="geometry" />
        </mxCell>
        <mxCell id="u_zNnAl9bDHypQ6zqv79-12" value="game dimulai&lt;br&gt;setiap tebakan salah, kesempatan tebak -= 1" style="rounded=0;whiteSpace=wrap;html=1;" vertex="1" parent="1">
          <mxGeometry x="460" y="420" width="120" height="60" as="geometry" />
        </mxCell>
        <mxCell id="u_zNnAl9bDHypQ6zqv79-15" value="end game" style="rounded=1;whiteSpace=wrap;html=1;" vertex="1" parent="1">
          <mxGeometry x="460" y="530" width="120" height="60" as="geometry" />
        </mxCell>
      </root>
    </mxGraphModel>
  </diagram>
</mxfile>
